<svg width="512" height="512" viewBox="0 0 512 512" fill="none" xmlns="http://www.w3.org/2000/svg">
  <defs>
    <linearGradient id="paint0_linear" x1="0" y1="0" x2="512" y2="512" gradientUnits="userSpaceOnUse">
      <stop offset="0" stop-color="#6366F1"/>
      <stop offset="1" stop-color="#00D8FF"/>
    </linearGradient>
  </defs>
  <!-- Background -->
  <rect width="512" height="512" rx="112" fill="url(#paint0_linear)"/>

  <!-- Subtle Grid -->
  <path d="M0 128H512M0 256H512M0 384H512M128 0V512M256 0V512M384 0V512" stroke="white" stroke-opacity="0.08" stroke-width="2"/>

  <!-- Icon Symbol (Simplified Car + AI Spark) -->
  <g transform="translate(128, 140) scale(0.5)">
    <!-- Car Silhouette -->
    <path d="M64 256C64 220 96 200 128 200H384C416 200 448 220 448 256V320H64V256Z" fill="white"/>
    <path d="M128 200L160 96H352L384 200H128Z" fill="white" fill-opacity="0.8"/>

    <!-- AI Spark -->
    <path d="M420 40C420 40 430 80 460 90C430 100 420 140 420 140C420 140 410 100 380 90C410 80 420 40 420 40Z" fill="white"/>
  </g>

  <!-- Route / Motion Line -->
  <path d="M100 400C160 400 200 350 256 350C312 350 352 400 412 400" stroke="white" stroke-width="20" stroke-linecap="round" stroke-opacity="0.5"/>
</svg>
