<svg width="512" height="512" viewBox="0 0 512 512" fill="none" xmlns="http://www.w3.org/2000/svg">
  <defs>
    <linearGradient id="paint0_linear" x1="0" y1="0" x2="512" y2="512" gradientUnits="userSpaceOnUse">
      <stop stop-color="#6366F1"/>
      <stop offset="1" stop-color="#00D8FF"/>
    </linearGradient>
    <filter id="filter0_d" x="110" y="140" width="300" height="260" filterUnits="userSpaceOnUse" color-interpolation-filters="sRGB">
      <feFlood flood-opacity="0" result="BackgroundImageFix"/>
      <feColorMatrix in="SourceAlpha" type="matrix" values="0 0 0 0 0 0 0 0 0 0 0 0 0 0 0 0 0 0 127 0"/>
      <feOffset dy="10"/>
      <feGaussianBlur stdDeviation="10"/>
      <feColorMatrix type="matrix" values="0 0 0 0 0 0 0 0 0 0 0 0 0 0 0 0 0 0 0.3 0"/>
      <feBlend mode="normal" in2="BackgroundImageFix" result="effect1_dropShadow"/>
      <feBlend mode="normal" in="SourceGraphic" in2="effect1_dropShadow" result="shape"/>
    </filter>
  </defs>
  <!-- Background -->
  <rect width="512" height="512" rx="112" fill="url(#paint0_linear)"/>

  <!-- Subtle Grid/Pattern -->
  <path d="M0 128H512M0 256H512M0 384H512M128 0V512M256 0V512M384 0V512" stroke="white" stroke-opacity="0.05" stroke-width="2"/>

  <!-- Icon Symbol (AI + Car Silhouette) -->
  <g filter="url(#filter0_d)">
    <!-- Main Car Body -->
    <path d="M160 320C160 300 180 290 200 290H312C332 290 352 300 352 320V340H160V320Z" fill="white"/>
    <!-- Car Top -->
    <path d="M190 290L210 240H302L322 290H190Z" fill="white" fill-opacity="0.9"/>
    <!-- AI Sparkle / Star -->
    <path d="M340 180C340 180 345 200 360 205C345 210 340 230 340 230C340 230 335 210 320 205C335 200 340 180 340 180Z" fill="white">
      <animate attributeName="opacity" values="0.7;1;0.7" dur="2s" repeatCount="indefinite" />
    </path>
    <!-- Another Sparkle -->
    <path d="M380 220C380 220 383 232 392 235C383 238 380 250 380 250C380 250 377 238 368 235C377 232 380 220 380 220Z" fill="white" fill-opacity="0.8"/>
  </g>

  <!-- Route Line -->
  <path d="M120 400C180 400 220 360 256 360C292 360 332 400 392 400" stroke="white" stroke-width="12" stroke-linecap="round" stroke-opacity="0.6"/>
</svg>
